<svg width="256" height="256" xmlns="http://www.w3.org/2000/svg">
 <g>
  <title>background</title>
  <rect fill="none" id="canvas_background" height="258" width="258" y="-1" x="-1"/>
 </g>

 <g>
  <title>Layer 1</title>
  <rect id="svg_1" height="256" width="256.000977" fill="#017BB6"/>
  <path id="svg_2" d="m43.80273,98.82715l36.11915,0l0,116.03711l-36.11915,0l0,-116.03711zm18.07276,-57.68457c11.54785,0 20.9126,9.37695 20.9126,20.90674c0,11.54101 -9.36475,20.91601 -20.9126,20.91601c-11.59082,0 -20.93262,-9.375 -20.93262,-20.91601c0,-11.52979 9.3418,-20.90674 20.93262,-20.90674" fill="#FFFFFF"/>
  <path id="svg_3" d="m102.56641,98.82715l34.58984,0l0,15.85937l0.49121,0c4.81055,-9.12939 16.58984,-18.74365 34.14551,-18.74365c36.51074,0 43.26562,24.02149 43.26562,55.27295l0,63.64844l-36.05371,0l0,-56.41602c0,-13.46875 -0.26562,-30.78076 -18.75586,-30.78076c-18.78027,0 -21.64257,14.65772 -21.64257,29.78467l0,57.41211l-36.04004,0l0,-116.03711z" fill="#FFFFFF"/>
  <g id="svg_43">
   <g transform="matrix(1.7777778837415923,0,0,1.7777778837415923,0,0) " id="svg_7" fill="#62bbc7">
    <path id="svg_8" d="m621.880307,-827.899196l-20.602,40.12l0,10.72l10.715,0l9.887,-50.84z"/>
    <path id="svg_9" d="m652.113307,-797.666196l-50.835,9.883l0,10.72l10.715,0l40.12,-20.603z"/>
   </g>
   <g transform="matrix(1.7777778837415923,0,0,1.7777778837415923,0,0) " id="svg_10" fill="#6dd1de">
    <path id="svg_11" d="m636.167307,-827.899196l-34.889,40.12l0,10.72l10.715,0l24.174,-50.84z"/>
    <path id="svg_12" d="m652.113307,-811.953196l-40.12,34.89l-10.715,0l0,-10.72l50.835,-24.17z"/>
   </g>
   <path id="svg_13" d="m1170.537536,-1483.045763l-101.600006,82.542227l0,19.057779l19.04889,0l82.551116,-101.600006z" fill="#7df0ff"/>
   <path id="svg_14" d="m1119.739311,-1432.247537l-50.800003,31.744002l0,19.057779l19.04889,0l31.751113,-50.801781z" fill="#c2f8ff"/>
   <circle transform="matrix(1.7777778837415923,0,0,1.7777778837415923,0,0) " id="svg_15" r="7.577" cy="-781.793192" cx="606.005325" fill="#7df0ff"/>
   <circle transform="matrix(1.7777778837415923,0,0,1.7777778837415923,0,0) " id="svg_16" r="6.695" cy="-781.793192" cx="606.004325" fill="#5995c1"/>
   <circle transform="matrix(1.7777778837415923,0,0,1.7777778837415923,0,0) " id="svg_17" r="1.477" cy="-786.270192" cx="605.832325" fill="#4b7ea3"/>
   <circle transform="matrix(1.7777778837415923,0,0,1.7777778837415923,0,0) " id="svg_18" r="1.223" cy="-786.622192" cx="605.753325" fill="#5995c1"/>
   <circle transform="matrix(1.7777778837415923,0,0,1.7777778837415923,0,0) " id="svg_19" r="0.972" cy="-783.508192" cx="610.577325" fill="#4b7ea3"/>
   <circle transform="matrix(1.7777778837415923,0,0,1.7777778837415923,0,0) " id="svg_20" r="0.805" cy="-783.743192" cx="610.527325" fill="#5995c1"/>
   <circle transform="matrix(1.7777778837415923,0,0,1.7777778837415923,0,0) " id="svg_21" r="1.454" cy="-777.367192" cx="608.163325" fill="#4b7ea3"/>
   <circle transform="matrix(1.7777778837415923,0,0,1.7777778837415923,0,0) " id="svg_22" r="1.202" cy="-777.713192" cx="608.085325" fill="#5995c1"/>
   <circle transform="matrix(1.7777778837415923,0,0,1.7777778837415923,0,0) " id="svg_23" r="0.971" cy="-783.310192" cx="601.107325" fill="#4b7ea3"/>
   <circle transform="matrix(1.7777778837415923,0,0,1.7777778837415923,0,0) " id="svg_24" r="0.805" cy="-783.541192" cx="601.054325" fill="#5995c1"/>
   <circle transform="matrix(1.7777778837415923,0,0,1.7777778837415923,0,0) " id="svg_25" r="2.461" cy="-779.963192" cx="604.285325" fill="#4b7ea3"/>
   <circle transform="matrix(1.7777778837415923,0,0,1.7777778837415923,0,0) " id="svg_26" r="2.036" cy="-780.552192" cx="604.153325" fill="#5995c1"/>
   <g transform="matrix(1.7777778837415923,0,0,1.7777778837415923,0,0) " id="svg_27" fill="#c2f8ff">
    <path id="svg_28" d="m3.456936,-263.285135l2.022306,-2.022306l-55.14938,53.3104l-2.022306,2.022306l55.14938,-53.3104z"/>
    <path id="svg_29" d="m436.021697,-187.834319l2.021448,-2.023164l-22.74844,83.88094l-2.021448,2.023164l22.74844,-83.88094z"/>
    <path id="svg_30" d="m612.514255,-569.155227l2.021734,-2.022878l-1.01816,71.46854l-2.021734,2.022878l1.01816,-71.46854z"/>
    <path id="svg_31" d="m652.782833,-70.79004l2.022592,-2.02202l3.11849,122.668236l-2.022592,2.02202l-3.11849,-122.668236z"/>
    <path id="svg_32" d="m180.199012,675.297699l2.022306,-2.022306l-36.07721,124.31045l-2.022306,2.022306l36.07721,-124.31045z"/>
    <path id="svg_33" d="m172.492038,-156.311176l0.999839,-0.999839l-21.193032,33.566946l-0.999839,0.999839l21.193032,-33.566946z"/>
    <path id="svg_34" d="m337.44627,-363.158942l0.999839,-0.999839l-16.330286,29.182132l-0.999839,0.999839l16.330286,-29.182132z"/>
    <path id="svg_35" d="m-12.313643,525.41702l1.000405,-0.999415l-23.67743,51.810374l-1.000405,0.999415l23.67743,-51.810374z"/>
    <path id="svg_36" d="m-506.922458,843.62082l1.000405,-0.999415l-34.10568,51.574236l-1.000405,0.999415l34.10568,-51.574236z"/>
    <path id="svg_37" d="m-163.391033,918.993542l1.000405,-0.999415l-26.177382,59.219734l-1.000405,0.999415l26.177382,-59.219734z"/>
    <path id="svg_38" d="m537.496327,112.646832l1.000405,-0.999415l-5.367544,57.406986l-1.000405,0.999415l5.367544,-57.406986z"/>
    <path id="svg_39" d="m480.140252,506.17536l0.999839,-0.999839l-7.454608,66.72666l-0.999839,0.999839l7.454608,-66.72666z"/>
    <path id="svg_40" d="m677.089335,-517.852439l1.000122,-0.999557l6.938498,47.869556l-1.000122,0.999557l-6.938498,-47.869556z"/>
    <path id="svg_41" d="m660.520579,-769.983292l1.000122,-0.999557l15.473402,47.626348l-1.000122,0.999557l-15.473402,-47.626348z"/>
    <path id="svg_42" d="m653.579166,-654.225338l1.000122,-0.999557l6.12969,38.3194l-1.000122,0.999557l-6.12969,-38.3194z"/>
   </g>
  </g>
  <g id="svg_83">
   <g transform="matrix(1.7780255298035286,0,0,1.7780255298035286,0,0) " id="svg_47" fill="#62bbc7">
    <path id="svg_48" d="m621.870297,-827.909267l-20.602,40.12l0,10.72l10.715,0l9.887,-50.84z"/>
    <path id="svg_49" d="m652.103297,-797.676267l-50.835,9.883l0,10.72l10.715,0l40.12,-20.603z"/>
   </g>
   <g transform="matrix(1.7780255298035286,0,0,1.7780255298035286,0,0) " id="svg_50" fill="#6dd1de">
    <path id="svg_51" d="m636.157297,-827.909267l-34.889,40.12l0,10.72l10.715,0l24.174,-50.84z"/>
    <path id="svg_52" d="m652.103297,-811.963267l-40.12,34.89l-10.715,0l0,-10.72l50.835,-24.17z"/>
   </g>
   <path id="svg_53" d="m1170.682773,-1483.270243l-101.614159,82.553725l0,19.060434l19.051544,0l82.562615,-101.614159z" fill="#7df0ff"/>
   <path id="svg_54" d="m1119.877472,-1432.464941l-50.80708,31.748424l0,19.060434l19.051544,0l31.755536,-50.808858z" fill="#c2f8ff"/>
   <circle transform="matrix(1.7780255298035286,0,0,1.7780255298035286,0,0) " id="svg_55" r="7.577" cy="-781.803254" cx="605.995303" fill="#7df0ff"/>
   <circle transform="matrix(1.7780255298035286,0,0,1.7780255298035286,0,0) " id="svg_56" r="6.695" cy="-781.803254" cx="605.994303" fill="#5995c1"/>
   <circle transform="matrix(1.7780255298035286,0,0,1.7780255298035286,0,0) " id="svg_57" r="1.477" cy="-786.280254" cx="605.822303" fill="#4b7ea3"/>
   <circle transform="matrix(1.7780255298035286,0,0,1.7780255298035286,0,0) " id="svg_58" r="1.223" cy="-786.632254" cx="605.743303" fill="#5995c1"/>
   <circle transform="matrix(1.7780255298035286,0,0,1.7780255298035286,0,0) " id="svg_59" r="0.972" cy="-783.518254" cx="610.567303" fill="#4b7ea3"/>
   <circle transform="matrix(1.7780255298035286,0,0,1.7780255298035286,0,0) " id="svg_60" r="0.805" cy="-783.753254" cx="610.517303" fill="#5995c1"/>
   <circle transform="matrix(1.7780255298035286,0,0,1.7780255298035286,0,0) " id="svg_61" r="1.454" cy="-777.377254" cx="608.153303" fill="#4b7ea3"/>
   <circle transform="matrix(1.7780255298035286,0,0,1.7780255298035286,0,0) " id="svg_62" r="1.202" cy="-777.723254" cx="608.075303" fill="#5995c1"/>
   <circle transform="matrix(1.7780255298035286,0,0,1.7780255298035286,0,0) " id="svg_63" r="0.971" cy="-783.320254" cx="601.097303" fill="#4b7ea3"/>
   <circle transform="matrix(1.7780255298035286,0,0,1.7780255298035286,0,0) " id="svg_64" r="0.805" cy="-783.551254" cx="601.044303" fill="#5995c1"/>
   <circle transform="matrix(1.7780255298035286,0,0,1.7780255298035286,0,0) " id="svg_65" r="2.461" cy="-779.973254" cx="604.275303" fill="#4b7ea3"/>
   <circle transform="matrix(1.7780255298035286,0,0,1.7780255298035286,0,0) " id="svg_66" r="2.036" cy="-780.562254" cx="604.143303" fill="#5995c1"/>
   <g transform="matrix(1.7780255298035286,0,0,1.7780255298035286,0,0) " id="svg_67" fill="#c2f8ff">
    <path id="svg_68" d="m3.446926,-263.295205l2.022306,-2.022306l-55.14938,53.3104l-2.022306,2.022306l55.14938,-53.3104z"/>
    <path id="svg_69" d="m436.011687,-187.844389l2.021448,-2.023164l-22.74844,83.88094l-2.021448,2.023164l22.74844,-83.88094z"/>
    <path id="svg_70" d="m612.504245,-569.165297l2.021734,-2.022878l-1.01816,71.46854l-2.021734,2.022878l1.01816,-71.46854z"/>
    <path id="svg_71" d="m652.772823,-70.800111l2.022592,-2.02202l3.11849,122.668236l-2.022592,2.02202l-3.11849,-122.668236z"/>
    <path id="svg_72" d="m180.189003,675.287628l2.022306,-2.022306l-36.07721,124.31045l-2.022306,2.022306l36.07721,-124.31045z"/>
    <path id="svg_73" d="m172.482028,-156.321247l0.999839,-0.999839l-21.193032,33.566946l-0.999839,0.999839l21.193032,-33.566946z"/>
    <path id="svg_74" d="m337.43626,-363.169013l0.999839,-0.999839l-16.330286,29.182132l-0.999839,0.999839l16.330286,-29.182132z"/>
    <path id="svg_75" d="m-12.323653,525.406949l1.000405,-0.999415l-23.67743,51.810374l-1.000405,0.999415l23.67743,-51.810374z"/>
    <path id="svg_76" d="m-506.932468,843.610749l1.000405,-0.999415l-34.10568,51.574236l-1.000405,0.999415l34.10568,-51.574236z"/>
    <path id="svg_77" d="m-163.401043,918.983472l1.000405,-0.999415l-26.177382,59.219734l-1.000405,0.999415l26.177382,-59.219734z"/>
    <path id="svg_78" d="m537.486317,112.636761l1.000405,-0.999415l-5.367544,57.406986l-1.000405,0.999415l5.367544,-57.406986z"/>
    <path id="svg_79" d="m480.130242,506.165289l0.999839,-0.999839l-7.454608,66.72666l-0.999839,0.999839l7.454608,-66.72666z"/>
    <path id="svg_80" d="m677.079325,-517.86251l1.000122,-0.999557l6.938498,47.869556l-1.000122,0.999557l-6.938498,-47.869556z"/>
    <path id="svg_81" d="m660.510569,-769.993363l1.000122,-0.999557l15.473402,47.626348l-1.000122,0.999557l-15.473402,-47.626348z"/>
    <path id="svg_82" d="m653.569156,-654.235409l1.000122,-0.999557l6.12969,38.3194l-1.000122,0.999557l-6.12969,-38.3194z"/>
   </g>
  </g>
  <g stroke="null" id="svg_135">
   <path stroke="null" id="svg_134" d="m98.424748,41.929087c-7.902083,-20.904995 -33.548328,-11.526291 -35.920806,-1.08615c-3.262158,-11.120993 -28.284391,-19.425903 -35.920806,1.100978c-8.502617,22.862289 32.955208,43.384228 35.920806,46.742767c2.961891,-2.67151 44.424658,-24.267241 35.920806,-46.757595" fill="#f46767"/>
  </g>
 </g>
</svg>